<svg width="24" height="24" viewBox="0 0 24 24" fill="none" xmlns="http://www.w3.org/2000/svg">
<g clip-path="url(#clip0_377_37)">
<path d="M11.017 2.81395C11.0598 2.58456 11.1816 2.37737 11.3611 2.22827C11.5406 2.07917 11.7666 1.99756 12 1.99756C12.2334 1.99756 12.4594 2.07917 12.6389 2.22827C12.8184 2.37737 12.9402 2.58456 12.983 2.81395L14.034 8.37195C14.1086 8.7671 14.3007 9.13057 14.585 9.41492C14.8694 9.69928 15.2329 9.89131 15.628 9.96595L21.186 11.017C21.4154 11.0598 21.6226 11.1815 21.7717 11.3611C21.9208 11.5406 22.0024 11.7666 22.0024 12C22.0024 12.2333 21.9208 12.4593 21.7717 12.6389C21.6226 12.8184 21.4154 12.9401 21.186 12.983L15.628 14.034C15.2329 14.1086 14.8694 14.3006 14.585 14.585C14.3007 14.8693 14.1086 15.2328 14.034 15.628L12.983 21.186C12.9402 21.4153 12.8184 21.6225 12.6389 21.7716C12.4594 21.9207 12.2334 22.0023 12 22.0023C11.7666 22.0023 11.5406 21.9207 11.3611 21.7716C11.1816 21.6225 11.0598 21.4153 11.017 21.186L9.966 15.628C9.89135 15.2328 9.69932 14.8693 9.41497 14.585C9.13062 14.3006 8.76715 14.1086 8.372 14.034L2.814 12.983C2.5846 12.9401 2.37741 12.8184 2.22832 12.6389C2.07922 12.4593 1.9976 12.2333 1.9976 12C1.9976 11.7666 2.07922 11.5406 2.22832 11.3611C2.37741 11.1815 2.5846 11.0598 2.814 11.017L8.372 9.96595C8.76715 9.89131 9.13062 9.69928 9.41497 9.41492C9.69932 9.13057 9.89135 8.7671 9.966 8.37195L11.017 2.81395Z" stroke="black" stroke-width="2" stroke-linecap="round" stroke-linejoin="round"/>
</g>
<defs>
<clipPath id="clip0_377_37">
<rect width="24" height="24" fill="white"/>
</clipPath>
</defs>
</svg>
